<svg xmlns="http://www.w3.org/2000/svg" viewBox="0 0 520 320" width="520" height="320">
  <defs>
    <filter id="shadow" x="-10%" y="-10%" width="120%" height="120%">
      <feDropShadow dx="0" dy="3" stdDeviation="6" flood-color="rgba(0,0,0,0.6)"/>
    </filter>
    <filter id="textshadow">
      <feDropShadow dx="2" dy="2" stdDeviation="3" flood-color="rgba(0,0,0,0.7)"/>
    </filter>
  </defs>

  <!-- Florida state outline (simplified path) -->
  <g filter="url(#shadow)" opacity="0.9">
    <path d="
      M 200 30
      L 390 30
      L 395 40
      L 400 38
      L 405 45
      L 398 50
      L 405 55
      L 400 65
      L 390 60
      L 385 70
      L 375 68
      L 370 80
      L 360 85
      L 355 95
      L 350 110
      L 345 130
      L 340 155
      L 338 175
      L 335 200
      L 330 220
      L 320 240
      L 310 255
      L 300 265
      L 288 272
      L 278 270
      L 268 262
      L 262 250
      L 258 238
      L 255 225
      L 252 210
      L 248 195
      L 242 185
      L 235 182
      L 225 185
      L 215 192
      L 208 202
      L 202 215
      L 195 225
      L 185 230
      L 175 228
      L 165 220
      L 158 210
      L 152 198
      L 148 185
      L 145 170
      L 143 155
      L 142 138
      L 140 120
      L 138 100
      L 138 80
      L 140 60
      L 145 45
      L 152 35
      L 160 30
      Z
    " fill="none" stroke="white" stroke-width="3.5" stroke-linejoin="round"/>
  </g>

  <!-- Service labels on Florida outline -->
  <text x="192" y="48" font-family="Arial Black, sans-serif" font-size="10.5" font-weight="900" fill="white" filter="url(#textshadow)" letter-spacing="0.5">ROOF-OVERS</text>
  <line x1="242" y1="46" x2="255" y2="46" stroke="white" stroke-width="1.5"/>

  <text x="320" y="58" font-family="Arial Black, sans-serif" font-size="10.5" font-weight="900" fill="white" filter="url(#textshadow)" letter-spacing="0.5">NEW SCREEN ROOMS</text>

  <text x="295" y="145" font-family="Arial Black, sans-serif" font-size="10.5" font-weight="900" fill="white" filter="url(#textshadow)" letter-spacing="0.5">RE-SCREENING</text>

  <text x="318" y="195" font-family="Arial Black, sans-serif" font-size="10.5" font-weight="900" fill="white" filter="url(#textshadow)" letter-spacing="0.5">CARPORTS</text>

  <!-- Palm tree (left side) -->
  <g filter="url(#shadow)">
    <!-- Trunk -->
    <path d="M 118 285 Q 122 240 130 200 Q 133 175 128 155" stroke="#6abf3a" stroke-width="7" fill="none" stroke-linecap="round"/>
    <!-- Fronds -->
    <path d="M 128 155 Q 100 130 75 118" stroke="#6abf3a" stroke-width="5" fill="none" stroke-linecap="round"/>
    <path d="M 128 155 Q 108 118 102 95" stroke="#6abf3a" stroke-width="5" fill="none" stroke-linecap="round"/>
    <path d="M 128 155 Q 128 115 138 92" stroke="#6abf3a" stroke-width="5" fill="none" stroke-linecap="round"/>
    <path d="M 128 155 Q 148 120 165 102" stroke="#6abf3a" stroke-width="5" fill="none" stroke-linecap="round"/>
    <path d="M 128 155 Q 158 135 178 128" stroke="#6abf3a" stroke-width="5" fill="none" stroke-linecap="round"/>
    <!-- Frond tips (leaf shapes) -->
    <path d="M 75 118 Q 65 112 60 108 Q 68 115 75 118Z" fill="#6abf3a"/>
    <path d="M 102 95 Q 96 85 93 78 Q 100 88 102 95Z" fill="#6abf3a"/>
    <path d="M 138 92 Q 136 80 136 72 Q 138 82 138 92Z" fill="#6abf3a"/>
    <path d="M 165 102 Q 170 92 174 85 Q 168 95 165 102Z" fill="#6abf3a"/>
    <path d="M 178 128 Q 185 120 190 115 Q 183 122 178 128Z" fill="#6abf3a"/>
    <!-- Ground/base -->
    <path d="M 95 285 Q 118 275 145 285" stroke="#6abf3a" stroke-width="4" fill="none" stroke-linecap="round"/>
  </g>

  <!-- NATIVE text -->
  <text
    x="148" y="210"
    font-family="Arial Black, Impact, sans-serif"
    font-size="88"
    font-weight="900"
    fill="white"
    filter="url(#textshadow)"
    letter-spacing="-2"
  >NATIVE</text>

  <!-- SCREENS text in green -->
  <text
    x="148" y="290"
    font-family="Arial Black, Impact, sans-serif"
    font-size="88"
    font-weight="900"
    fill="#6abf3a"
    filter="url(#textshadow)"
    letter-spacing="-2"
  >SCREENS</text>

</svg>
